<svg version="1.1"  xmlns="http://www.w3.org/2000/svg" xmlns:xlink="http://www.w3.org/1999/xlink" x="0px" y="0px"
	 viewBox="0 0 300.6 67.8" style="enable-background:new 0 0 300.6 67.8;" xml:space="preserve">
<g>
	<path d="M57.2,1.8L33.9,25.1L10.6,1.8c-2.4-2.4-6.3-2.4-8.8,0c-2.4,2.4-2.4,6.3,0,8.8l25.9,25.9v25c0,3.1,2.3,5.8,5.3,6.3
		c0.3,0,0.6,0.1,0.9,0.1c1.5,0,2.9-0.5,4.1-1.5c1.4-1.2,2.1-2.9,2.1-4.7V36.5L66,10.6c2.4-2.4,2.4-6.3,0-8.8
		C63.6-0.6,59.6-0.6,57.2,1.8z"/>
	<path d="M109.4,0.1C92.5,1.2,78.9,14.7,77.8,31.7c-0.6,9.7,3,19.3,9.9,26.2c6.4,6.4,15,9.9,24,9.9c0.7,0,1.4,0,2.2-0.1
		c16.9-1.1,30.5-14.7,31.6-31.6c0.6-9.7-3-19.3-9.9-26.2C128.7,3,119.2-0.6,109.4,0.1z M126.9,49.1c-4.5,4.5-10.8,6.8-17.2,6.2
		C99.5,54.4,91.1,46,90.2,35.9c-0.6-6.4,1.7-12.7,6.2-17.2c4.5-4.5,10.8-6.8,17.2-6.2c10.2,0.9,18.6,9.3,19.5,19.5
		C133.7,38.3,131.4,44.6,126.9,49.1z"/>
	<path d="M215.6,40.8c0-0.1-0.1-0.2-0.1-0.2L197,3.4c-1.1-2.1-3.2-3.4-5.5-3.4s-4.5,1.3-5.5,3.4l-27.7,55.4
		c-0.4,0.9-0.7,1.8-0.7,2.8c0,2.4,1.3,4.5,3.4,5.5c0.9,0.4,1.8,0.7,2.8,0.7c2.4,0,4.5-1.3,5.5-3.4l7.4-14.7h29.6l7.4,14.7
		c1.5,3.1,5.3,4.3,8.3,2.8c3.1-1.5,4.3-5.3,2.8-8.3L215.6,40.8z M200,37.2h-17.2l8.6-17.2L200,37.2z"/>
	<path d="M275.3,0H248c-3.4,0-6.2,2.8-6.2,6.2v54.3c0,3.1,2.3,5.8,5.3,6.3c0.3,0,0.6,0.1,0.9,0.1c1.5,0,2.9-0.5,4.1-1.5
		c1.4-1.2,2.1-2.9,2.1-4.7v-11h21.6c6.7,0,13-2.7,17.7-7.5c4.7-4.8,7.2-11.2,7.1-17.9C300.3,10.9,289,0,275.3,0z M288.2,25.8
		c-0.5,6.2-6.3,11.5-12.7,11.5h-21.3V12.4h21.6c3.4,0,6.8,1.5,9.1,4C287.3,18.9,288.4,22.3,288.2,25.8z"/>
</g>
</svg>
