<svg width="24px" height="24px" viewBox="0 0 24 24" version="1.1" xmlns="http://www.w3.org/2000/svg" xmlns:xlink="http://www.w3.org/1999/xlink">
  <g>
    <path d="M20.4412523,23.1957703 L20.0570207,23.1957703 L20.0570207,23.1719028 C19.9001726,23.1878145 19.7400761,23.1957703 19.5767312,23.1957703 L16.7550304,23.1957703 L16.7550304,14.2651212 L19.7418307,14.2651212 L20.1921021,10.7829185 L16.7550304,10.7829185 L16.7550304,8.56151333 C16.7550304,8.00115607 16.8726001,7.58089443 17.107743,7.3007158 C17.3428859,7.02053717 17.8006573,6.88044996 18.4810708,6.88044996 L20.3121745,6.86544046 L20.3121745,3.75847513 C19.6817914,3.66841771 18.7912635,3.62338968 17.6405642,3.62338968 C16.2797372,3.62338968 15.1915922,4.02363886 14.3760966,4.82414923 C13.5606009,5.6246596 13.1528593,6.75536353 13.1528593,8.21629496 L13.1528593,10.7829185 L10.1510499,10.7829185 L10.1510499,14.2651212 L13.1528593,14.2651212 L13.1528593,23.1957703 L9.4906519,23.1957703 L9.4906519,0.141186983 L19.5767312,0.141186983 C19.7400761,0.141186983 19.9001726,0.149142835 20.0570207,0.165054571 L20.0570207,0.141186983 L20.4412523,0.141186983 L20.4412523,23.1957703 L20.4412523,23.1957703 Z M0.845441088,1.8740278 C0.845441088,0.917006241 1.62025412,0.141186983 2.5741504,0.141186983 L9.4906519,0.141186983 L9.4906519,23.1957703 L2.5741504,23.1957703 C1.61941061,23.1957703 0.845441088,22.4221107 0.845441088,21.4629295 L0.845441088,1.8740278 Z M20.4412523,0.141186983 L22.1702944,0.141186983 C23.125218,0.141186983 23.8993366,0.914846586 23.8993366,1.8740278 L23.8993366,21.4629295 C23.8993366,22.4199511 23.123275,23.1957703 22.1702944,23.1957703 L20.4412523,23.1957703 L20.4412523,0.141186983 Z" id="Combined-Shape"></path>
  </g>
</svg>
