<svg width="24px" height="24px" viewBox="0 0 24 24" version="1.1" xmlns="http://www.w3.org/2000/svg" xmlns:xlink="http://www.w3.org/1999/xlink">
  <g>
    <path d="M11.5249767,2.07661855 C14.6022993,2.07661855 14.966778,2.08833018 16.1820427,2.14377743 C17.3057188,2.19506156 17.9159588,2.38281365 18.3221145,2.54060042 C18.8600261,2.74967133 19.2439937,2.99945846 19.6472672,3.402732 C20.0505408,3.80600554 20.3003279,4.18997319 20.5093531,4.72788473 C20.6671856,5.13404043 20.8549377,5.74428045 20.9062218,6.86791078 C20.9616691,8.08322122 20.9733807,8.44769999 20.9733807,11.5250225 C20.9733807,14.602345 20.9616691,14.9668238 20.9062218,16.1820885 C20.8549377,17.3057645 20.6671856,17.9160046 20.5093531,18.3221603 C20.3003279,18.8600718 20.0505408,19.2440394 19.6472672,19.647313 C19.2439937,20.0505865 18.8600261,20.3003737 18.3221145,20.5093988 C17.9159588,20.6672313 17.3057188,20.8549834 16.1820427,20.9062676 C14.966961,20.9617148 14.6024822,20.9734264 11.5249767,20.9734264 C8.44747124,20.9734264 8.08299248,20.9617148 6.86791078,20.9062676 C5.7442347,20.8549834 5.13399468,20.6672313 4.72788473,20.5093988 C4.18992744,20.3003737 3.80595979,20.0505865 3.40268625,19.647313 C2.99941271,19.2440394 2.74962558,18.8600718 2.54060042,18.3221603 C2.3827679,17.9160046 2.19501582,17.3057645 2.14373168,16.1821342 C2.08828443,14.9668238 2.0765728,14.602345 2.0765728,11.5250225 C2.0765728,8.44769999 2.08828443,8.08322122 2.14373168,6.86795653 C2.19501582,5.74428045 2.3827679,5.13404043 2.54060042,4.72788473 C2.74962558,4.18997319 2.99941271,3.80600554 3.40268625,3.402732 C3.80595979,2.99945846 4.18992744,2.74967133 4.72788473,2.54060042 C5.13399468,2.38281365 5.7442347,2.19506156 6.86786503,2.14377743 C8.08317548,2.08833018 8.44765424,2.07661855 11.5249767,2.07661855 M11.5249767,0 C8.3949519,0 8.00252077,0.0132670818 6.77325701,0.069354814 C5.54650943,0.125351049 4.70876183,0.320148409 3.97564119,0.605070429 C3.21777058,0.899599646 2.57504909,1.29367772 1.93434053,1.93438628 C1.29363198,2.57509484 0.899553897,3.21781633 0.60502468,3.97568694 C0.320102661,4.70880758 0.125305301,5.54655518 0.0693090654,6.77330276 C0.0132213333,8.00252077 0,8.39499765 0,11.5250225 C0,14.6550473 0.0132213333,15.0475242 0.0693090654,16.2767422 C0.125305301,17.5034898 0.320102661,18.3412374 0.60502468,19.074358 C0.899553897,19.8321829 1.29363198,20.4749502 1.93434053,21.1156587 C2.57504909,21.7563673 3.21777058,22.1504453 3.97564119,22.4449746 C4.70876183,22.7298966 5.54650943,22.9246939 6.77325701,22.9806902 C8.00252077,23.0367779 8.3949519,23.0499992 11.5249767,23.0499992 C14.6550016,23.0499992 15.0474785,23.0367779 16.2766965,22.9806902 C17.5034441,22.9246939 18.3411917,22.7298966 19.0743123,22.4449746 C19.8321829,22.1504453 20.4749044,21.7563673 21.115613,21.1156587 C21.7563215,20.4749502 22.1503996,19.8322287 22.4449288,19.074358 C22.7298508,18.3412374 22.9246482,17.5034898 22.9806444,16.2767422 C23.0367322,15.0475242 23.0499992,14.6550473 23.0499992,11.5250225 C23.0499992,8.39499765 23.0367322,8.00252077 22.9806444,6.77330276 C22.9246482,5.54655518 22.7298508,4.70880758 22.4449288,3.97568694 C22.1503996,3.21781633 21.7563215,2.57509484 21.115613,1.93438628 C20.4749044,1.29367772 19.8321829,0.899599646 19.0743123,0.605070429 C18.3411917,0.320148409 17.5034441,0.125351049 16.2766965,0.069354814 C15.0474785,0.0132670818 14.6550016,0 11.5249767,0 Z M11.5478667,5.62529743 C8.2769365,5.62529743 5.62529743,8.2769365 5.62529743,11.5478667 C5.62529743,14.8187969 8.2769365,17.4704359 11.5478667,17.4704359 C14.8187969,17.4704359 17.4704359,14.8187969 17.4704359,11.5478667 C17.4704359,8.2769365 14.8187969,5.62529743 11.5478667,5.62529743 Z M11.5478667,15.3923519 C9.42464174,15.3923519 7.70338146,13.6710916 7.70338146,11.5478667 C7.70338146,9.42464174 9.42464174,7.70338146 11.5478667,7.70338146 C13.6710916,7.70338146 15.3923519,9.42464174 15.3923519,11.5478667 C15.3923519,13.6710916 13.6710916,15.3923519 11.5478667,15.3923519 Z M19.0253962,5.35086999 C19.0253962,6.10862486 18.41115,6.72291644 17.6533951,6.72291644 C16.8956402,6.72291644 16.2813487,6.10862486 16.2813487,5.35086999 C16.2813487,4.59311511 16.8956402,3.97886892 17.6533951,3.97886892 C18.41115,3.97886892 19.0253962,4.59311511 19.0253962,5.35086999 Z" id="Shape"></path>
  </g>
</svg>
