<svg width="29px" height="24px" viewBox="0 0 29 24" version="1.1" xmlns="http://www.w3.org/2000/svg" xmlns:xlink="http://www.w3.org/1999/xlink">
    <g id="Symbols" stroke="none" stroke-width="1" fill="none" fill-rule="evenodd">
        <g id="Social-Black" transform="translate(-41.000000, 0.000000)" fill="inherit">
            <g id="social">
                <path d="M69.417183,2.87891876 C68.612694,4.055669 67.6401176,5.0582932 66.4994243,5.88682143 C66.5114316,6.05492861 66.5174352,6.30708559 66.5174352,6.64329995 C66.5174352,8.20429517 66.2892999,9.7622651 65.8330226,11.3172565 C65.3767453,12.8722479 64.6833343,14.3641767 63.7527688,15.7930877 C62.8222033,17.2219987 61.7145467,18.4857855 60.4297659,19.584486 C59.1449851,20.6831865 57.596067,21.5597322 55.7829651,22.2141494 C53.9698632,22.8685666 52.0307138,23.1957703 49.9654586,23.1957703 C46.7114811,23.1957703 43.733716,22.3252284 41.0320741,20.5841183 C41.4523295,20.6321489 41.9206071,20.6561639 42.4369209,20.6561639 C45.1385628,20.6561639 47.5459898,19.8276481 49.6592741,18.1705916 C48.3985079,18.1465763 47.2698389,17.7593352 46.2732332,17.0088568 C45.2766275,16.2583783 44.5922218,15.3007821 44.2199956,14.1360395 C44.6162364,14.1960778 44.9824535,14.2260965 45.3186578,14.2260965 C45.8349716,14.2260965 46.3452741,14.1600554 46.8495806,14.0279712 C45.5047633,13.7517951 44.3911032,13.0823783 43.5085668,12.0197008 C42.6260305,10.9570233 42.1847689,9.72325522 42.1847689,8.31835952 L42.1847689,8.24631395 C43.0012651,8.70260486 43.8777847,8.9487581 44.8143539,8.98478107 C44.0218722,8.45644423 43.3914986,7.76601439 42.923214,6.91347085 C42.4549294,6.0609273 42.2207906,5.1363517 42.2207906,4.13971629 C42.2207906,3.0830426 42.4849472,2.10443335 43.0132683,1.20385919 C44.4661512,2.99299986 46.2341992,4.42489131 48.3174653,5.49957648 C50.4007314,6.57426165 52.6310534,7.17163355 55.0084983,7.2917101 C54.9124399,6.83541919 54.8644114,6.3911426 54.8644114,5.958867 C54.8644114,4.34984116 55.4317477,2.97798709 56.5664373,1.84326365 C57.7011269,0.708540197 59.07294,0.141186983 60.6819179,0.141186983 C62.3629395,0.141186983 63.7797793,0.75356823 64.9324799,1.9783491 C66.2412753,1.72618833 67.4720048,1.25789679 68.6247053,0.573460421 C68.1804353,1.95434081 67.32793,3.02300612 66.0671638,3.77948842 C67.1838424,3.65941187 68.3005043,3.35922498 69.417183,2.87891876 L69.417183,2.87891876 Z" id="Shape-Copy-2"></path>
            </g>
        </g>
    </g>
</svg>
