<svg width="32px" height="32px" viewBox="0 0 32 32" version="1.1" xmlns="http://www.w3.org/2000/svg" xmlns:xlink="http://www.w3.org/1999/xlink">
    <g stroke="#DCDCDC" stroke-width="1" fill="none" fill-rule="evenodd" >
      <path d="M20,14.2105263 L20,4.73684211 L15,0 L10,4.73684211 L10,7.89473684 L0,7.89473684 L0,30 L30,30 L30,14.2105263 L20,14.2105263 Z M6.66666667,26.8421053 L3.33333333,26.8421053 L3.33333333,23.6842105 L6.66666667,23.6842105 L6.66666667,26.8421053 Z M6.66666667,20.5263158 L3.33333333,20.5263158 L3.33333333,17.3684211 L6.66666667,17.3684211 L6.66666667,20.5263158 Z M6.66666667,14.2105263 L3.33333333,14.2105263 L3.33333333,11.0526316 L6.66666667,11.0526316 L6.66666667,14.2105263 Z M16.6666667,26.8421053 L13.3333333,26.8421053 L13.3333333,23.6842105 L16.6666667,23.6842105 L16.6666667,26.8421053 Z M16.6666667,20.5263158 L13.3333333,20.5263158 L13.3333333,17.3684211 L16.6666667,17.3684211 L16.6666667,20.5263158 Z M16.6666667,14.2105263 L13.3333333,14.2105263 L13.3333333,11.0526316 L16.6666667,11.0526316 L16.6666667,14.2105263 Z M16.6666667,7.89473684 L13.3333333,7.89473684 L13.3333333,4.73684211 L16.6666667,4.73684211 L16.6666667,7.89473684 Z M26.6666667,26.8421053 L23.3333333,26.8421053 L23.3333333,23.6842105 L26.6666667,23.6842105 L26.6666667,26.8421053 Z M26.6666667,20.5263158 L23.3333333,20.5263158 L23.3333333,17.3684211 L26.6666667,17.3684211 L26.6666667,20.5263158 Z"></path>
    </g>
</svg>
