<?xml version="1.0" encoding="utf-8"?>
<!-- Generator: Adobe Illustrator 20.1.0, SVG Export Plug-In . SVG Version: 6.00 Build 0)  -->
<svg version="1.1" id="Capa_1" xmlns="http://www.w3.org/2000/svg" xmlns:xlink="http://www.w3.org/1999/xlink" x="0px" y="0px"
	 viewBox="0 0 52 52" style="enable-background:new 0 0 52 52;" xml:space="preserve">
<g>
	<path d="M26,1.6C12.6,1.6,1.6,12.6,1.6,26S12.6,50.4,26,50.4S50.4,39.4,50.4,26S39.4,1.6,26,1.6z M26,48.5
		C13.6,48.5,3.5,38.4,3.5,26C3.5,13.6,13.6,3.5,26,3.5c12.4,0,22.5,10.1,22.5,22.5C48.5,38.4,38.4,48.5,26,48.5z"/>
	<path d="M37.1,25.1H26.9v-9.8c0-0.5-0.4-0.9-0.9-0.9s-0.9,0.4-0.9,0.9v9.8H14.9c-0.5,0-0.9,0.4-0.9,0.9s0.4,0.9,0.9,0.9h10.2v10.7
		c0,0.5,0.4,0.9,0.9,0.9s0.9-0.4,0.9-0.9V26.9h10.2c0.5,0,0.9-0.4,0.9-0.9S37.6,25.1,37.1,25.1z"/>
</g>
</svg>
