<?xml version="1.0" encoding="UTF-8"?>
<svg width="20px" height="20px" viewBox="0 0 20 20" version="1.1" xmlns="http://www.w3.org/2000/svg" xmlns:xlink="http://www.w3.org/1999/xlink">
    <g stroke="none" stroke-width="1" fill="#863B96" fill-rule="evenodd">
      <path d="M12.7034872,13.4810769 L12.4807766,12.8842271 L11.6515458,10.5617363 L10.0352088,13.4810769 L8.33425641,10.5617363 L7.50487912,12.8842271 L7.28627106,13.4810769 L4.6854652,13.4810769 L4.91733333,12.8842271 L7.86971429,5.45309158 L10.0352088,9.46715751 L12.2053919,5.48810989 L15.0743297,12.8856923 L15.2877363,13.4810769 L12.7034872,13.4810769 Z M9.98663736,5.12820513e-05 C4.47117949,5.12820513e-05 -2.93040284e-05,4.47118681 -2.93040284e-05,9.98664469 C-2.93040284e-05,14.7349231 3.31396337,18.708989 7.75498901,19.7226886 C8.47257143,19.8864982 9.21945788,19.9732381 9.98663736,19.9732381 C10.7538168,19.9732381 11.50063,19.8864982 12.2182125,19.7226886 C16.6593114,18.708989 19.9732308,14.7349231 19.9732308,9.98664469 C19.9732308,4.47118681 15.5020952,5.12820513e-05 9.98663736,5.12820513e-05 L9.98663736,5.12820513e-05 Z" id="Fill-1"></path>
    </g>
</svg>
